<svg width="215" height="56" viewBox="0 0 215 56" fill="none" xmlns="http://www.w3.org/2000/svg">
<path d="M4.572 40C4.164 40 3.816 39.88 3.528 39.64C3.264 39.376 3.132 39.04 3.132 38.632V15.952C3.132 15.496 3.264 15.136 3.528 14.872C3.792 14.584 4.152 14.44 4.608 14.44C5.064 14.44 5.424 14.584 5.688 14.872C5.952 15.136 6.084 15.496 6.084 15.952V37.48H17.712C18.144 37.48 18.48 37.588 18.72 37.804C18.96 38.02 19.08 38.332 19.08 38.74C19.08 39.148 18.96 39.46 18.72 39.676C18.48 39.892 18.144 40 17.712 40H4.572ZM29.3783 40.252C27.7223 40.252 26.2583 39.88 24.9863 39.136C23.7383 38.392 22.7663 37.336 22.0703 35.968C21.3983 34.576 21.0623 32.968 21.0623 31.144C21.0623 29.32 21.3983 27.724 22.0703 26.356C22.7663 24.964 23.7383 23.896 24.9863 23.152C26.2583 22.408 27.7223 22.036 29.3783 22.036C31.0343 22.036 32.4983 22.408 33.7703 23.152C35.0423 23.896 36.0143 24.964 36.6863 26.356C37.3823 27.724 37.7303 29.32 37.7303 31.144C37.7303 32.968 37.3823 34.576 36.6863 35.968C36.0143 37.336 35.0423 38.392 33.7703 39.136C32.4983 39.88 31.0343 40.252 29.3783 40.252ZM29.3783 37.84C31.1063 37.84 32.4263 37.276 33.3383 36.148C34.2743 34.996 34.7423 33.328 34.7423 31.144C34.7423 29.008 34.2743 27.364 33.3383 26.212C32.4023 25.036 31.0823 24.448 29.3783 24.448C27.6743 24.448 26.3543 25.036 25.4183 26.212C24.4823 27.364 24.0143 29.008 24.0143 31.144C24.0143 33.304 24.4703 34.96 25.3823 36.112C26.3183 37.264 27.6503 37.84 29.3783 37.84ZM50.751 22.108C51.759 22.036 52.263 22.444 52.263 23.332C52.263 23.716 52.155 24.028 51.939 24.268C51.723 24.484 51.351 24.616 50.823 24.664L49.743 24.772C48.135 24.916 46.935 25.492 46.143 26.5C45.375 27.484 44.991 28.648 44.991 29.992V38.74C44.991 39.22 44.859 39.58 44.595 39.82C44.331 40.06 43.983 40.18 43.551 40.18C43.119 40.18 42.759 40.06 42.471 39.82C42.207 39.556 42.075 39.196 42.075 38.74V23.548C42.075 23.092 42.219 22.744 42.507 22.504C42.795 22.24 43.143 22.108 43.551 22.108C43.935 22.108 44.259 22.24 44.523 22.504C44.787 22.744 44.919 23.08 44.919 23.512V25.528C45.423 24.472 46.131 23.668 47.043 23.116C47.979 22.564 49.047 22.24 50.247 22.144L50.751 22.108ZM67.9868 35.932C68.2508 35.932 68.4788 36.04 68.6708 36.256C68.8628 36.472 68.9588 36.748 68.9588 37.084C68.9588 37.684 68.5388 38.236 67.6988 38.74C66.8348 39.244 65.9228 39.628 64.9628 39.892C64.0028 40.132 63.0668 40.252 62.1548 40.252C59.4428 40.252 57.2948 39.448 55.7108 37.84C54.1508 36.232 53.3708 34.012 53.3708 31.18C53.3708 29.38 53.7188 27.796 54.4148 26.428C55.1108 25.036 56.0828 23.956 57.3308 23.188C58.6028 22.42 60.0428 22.036 61.6508 22.036C63.9308 22.036 65.7428 22.78 67.0868 24.268C68.4308 25.756 69.1028 27.772 69.1028 30.316C69.1028 30.796 69.0068 31.144 68.8148 31.36C68.6228 31.576 68.3108 31.684 67.8788 31.684H56.2868C56.5028 35.812 58.4588 37.876 62.1548 37.876C63.0908 37.876 63.8948 37.756 64.5668 37.516C65.2388 37.252 65.9588 36.904 66.7268 36.472C67.3508 36.112 67.7708 35.932 67.9868 35.932ZM61.6868 24.304C60.1508 24.304 58.9148 24.784 57.9788 25.744C57.0668 26.704 56.5268 28.06 56.3588 29.812H66.5468C66.4988 28.036 66.0548 26.68 65.2148 25.744C64.3748 24.784 63.1988 24.304 61.6868 24.304ZM92.9112 22.036C96.7992 22.036 98.7432 24.352 98.7432 28.984V38.74C98.7432 39.196 98.6112 39.556 98.3472 39.82C98.0832 40.06 97.7352 40.18 97.3032 40.18C96.8712 40.18 96.5112 40.06 96.2232 39.82C95.9592 39.556 95.8272 39.196 95.8272 38.74V29.056C95.8272 27.448 95.5392 26.284 94.9632 25.564C94.3872 24.844 93.4872 24.484 92.2632 24.484C90.7992 24.484 89.6472 24.976 88.8072 25.96C87.9672 26.944 87.5472 28.276 87.5472 29.956V38.74C87.5472 39.196 87.4032 39.556 87.1152 39.82C86.8512 40.06 86.5032 40.18 86.0712 40.18C85.6392 40.18 85.2912 40.06 85.0272 39.82C84.7632 39.556 84.6312 39.196 84.6312 38.74V29.056C84.6312 27.448 84.3432 26.284 83.7672 25.564C83.1912 24.844 82.2792 24.484 81.0312 24.484C79.5912 24.484 78.4392 24.976 77.5752 25.96C76.7352 26.944 76.3152 28.276 76.3152 29.956V38.74C76.3152 39.196 76.1832 39.556 75.9192 39.82C75.6552 40.06 75.3072 40.18 74.8752 40.18C74.4432 40.18 74.0832 40.06 73.7952 39.82C73.5312 39.556 73.3992 39.196 73.3992 38.74V23.548C73.3992 23.116 73.5312 22.768 73.7952 22.504C74.0832 22.24 74.4432 22.108 74.8752 22.108C75.2832 22.108 75.6192 22.24 75.8832 22.504C76.1472 22.744 76.2792 23.08 76.2792 23.512V25.24C76.8072 24.208 77.5392 23.416 78.4752 22.864C79.4112 22.312 80.4912 22.036 81.7152 22.036C84.4512 22.036 86.2392 23.188 87.0792 25.492C87.5832 24.436 88.3512 23.596 89.3832 22.972C90.4152 22.348 91.5912 22.036 92.9112 22.036ZM106.395 40.216C105.699 40.216 105.135 40 104.703 39.568C104.295 39.136 104.091 38.572 104.091 37.876V16.744C104.091 16.048 104.295 15.496 104.703 15.088C105.135 14.656 105.699 14.44 106.395 14.44C107.115 14.44 107.679 14.656 108.087 15.088C108.519 15.496 108.735 16.048 108.735 16.744V37.876C108.735 38.572 108.519 39.136 108.087 39.568C107.679 40 107.115 40.216 106.395 40.216ZM123.936 21.964C125.448 21.964 126.792 22.348 127.968 23.116C129.168 23.884 130.092 24.976 130.74 26.392C131.412 27.784 131.748 29.392 131.748 31.216C131.748 33.04 131.412 34.636 130.74 36.004C130.092 37.372 129.18 38.428 128.004 39.172C126.828 39.916 125.472 40.288 123.936 40.288C122.688 40.288 121.572 40.024 120.588 39.496C119.604 38.968 118.848 38.236 118.32 37.3V44.644C118.32 45.268 118.116 45.76 117.708 46.12C117.3 46.48 116.76 46.66 116.088 46.66C115.416 46.66 114.864 46.468 114.432 46.084C114.024 45.7 113.82 45.196 113.82 44.572V24.16C113.82 23.512 114.012 22.996 114.396 22.612C114.804 22.228 115.344 22.036 116.016 22.036C116.688 22.036 117.228 22.228 117.636 22.612C118.044 22.996 118.248 23.512 118.248 24.16V25.06C118.776 24.076 119.532 23.32 120.516 22.792C121.524 22.24 122.664 21.964 123.936 21.964ZM122.748 36.796C124.164 36.796 125.268 36.316 126.06 35.356C126.852 34.372 127.248 32.992 127.248 31.216C127.248 29.392 126.852 27.976 126.06 26.968C125.268 25.96 124.164 25.456 122.748 25.456C121.308 25.456 120.192 25.948 119.4 26.932C118.632 27.916 118.248 29.32 118.248 31.144C118.248 32.944 118.632 34.336 119.4 35.32C120.192 36.304 121.308 36.796 122.748 36.796ZM141.814 40.288C139.198 40.288 137.086 39.772 135.478 38.74C134.71 38.284 134.326 37.636 134.326 36.796C134.326 36.316 134.458 35.932 134.722 35.644C134.986 35.332 135.31 35.176 135.694 35.176C136.102 35.176 136.666 35.368 137.386 35.752C138.154 36.112 138.85 36.388 139.474 36.58C140.122 36.772 140.938 36.868 141.922 36.868C142.93 36.868 143.71 36.7 144.262 36.364C144.838 36.028 145.126 35.56 145.126 34.96C145.126 34.552 145.006 34.228 144.766 33.988C144.55 33.748 144.142 33.532 143.542 33.34C142.966 33.124 142.078 32.884 140.878 32.62C138.742 32.188 137.206 31.576 136.27 30.784C135.358 29.992 134.902 28.9 134.902 27.508C134.902 26.452 135.214 25.504 135.838 24.664C136.462 23.8 137.314 23.14 138.394 22.684C139.498 22.204 140.746 21.964 142.138 21.964C143.146 21.964 144.118 22.096 145.054 22.36C145.99 22.6 146.83 22.96 147.574 23.44C148.342 23.92 148.726 24.556 148.726 25.348C148.726 25.828 148.594 26.236 148.33 26.572C148.066 26.884 147.742 27.04 147.358 27.04C147.094 27.04 146.83 26.992 146.566 26.896C146.326 26.776 146.014 26.608 145.63 26.392C144.934 26.032 144.334 25.768 143.83 25.6C143.326 25.408 142.702 25.312 141.958 25.312C141.07 25.312 140.362 25.492 139.834 25.852C139.33 26.212 139.078 26.704 139.078 27.328C139.078 27.928 139.342 28.384 139.87 28.696C140.398 29.008 141.418 29.32 142.93 29.632C144.538 29.968 145.798 30.352 146.71 30.784C147.622 31.216 148.27 31.756 148.654 32.404C149.062 33.052 149.266 33.88 149.266 34.888C149.266 36.52 148.582 37.828 147.214 38.812C145.87 39.796 144.07 40.288 141.814 40.288ZM166.81 22.036C167.506 22.036 168.058 22.228 168.466 22.612C168.874 22.996 169.078 23.512 169.078 24.16V38.128C169.078 38.752 168.862 39.256 168.43 39.64C168.022 40.024 167.482 40.216 166.81 40.216C166.162 40.216 165.646 40.036 165.262 39.676C164.878 39.316 164.686 38.824 164.686 38.2V37.3C164.134 38.26 163.39 39.004 162.454 39.532C161.518 40.036 160.462 40.288 159.286 40.288C154.966 40.288 152.806 37.864 152.806 33.016V24.16C152.806 23.512 153.01 22.996 153.418 22.612C153.826 22.228 154.366 22.036 155.038 22.036C155.734 22.036 156.286 22.228 156.694 22.612C157.102 22.996 157.306 23.512 157.306 24.16V33.052C157.306 34.3 157.558 35.224 158.062 35.824C158.566 36.424 159.358 36.724 160.438 36.724C161.686 36.724 162.682 36.316 163.426 35.5C164.194 34.66 164.578 33.556 164.578 32.188V24.16C164.578 23.512 164.782 22.996 165.19 22.612C165.598 22.228 166.138 22.036 166.81 22.036ZM194.678 21.964C196.598 21.964 198.062 22.54 199.07 23.692C200.102 24.82 200.618 26.656 200.618 29.2V38.056C200.618 38.752 200.402 39.292 199.97 39.676C199.562 40.036 199.022 40.216 198.35 40.216C197.702 40.216 197.162 40.036 196.73 39.676C196.322 39.292 196.118 38.752 196.118 38.056V29.2C196.118 27.88 195.878 26.944 195.398 26.392C194.942 25.816 194.234 25.528 193.274 25.528C192.098 25.528 191.162 25.936 190.466 26.752C189.77 27.544 189.422 28.636 189.422 30.028V38.056C189.422 38.752 189.206 39.292 188.774 39.676C188.366 40.036 187.838 40.216 187.19 40.216C186.542 40.216 186.002 40.036 185.57 39.676C185.138 39.292 184.922 38.752 184.922 38.056V29.2C184.922 27.88 184.682 26.944 184.202 26.392C183.746 25.816 183.038 25.528 182.078 25.528C180.902 25.528 179.966 25.936 179.27 26.752C178.598 27.544 178.262 28.636 178.262 30.028V38.056C178.262 38.752 178.046 39.292 177.614 39.676C177.182 40.036 176.642 40.216 175.994 40.216C175.346 40.216 174.806 40.036 174.374 39.676C173.966 39.292 173.762 38.752 173.762 38.056V24.124C173.762 23.452 173.978 22.936 174.41 22.576C174.842 22.216 175.382 22.036 176.03 22.036C176.654 22.036 177.158 22.216 177.542 22.576C177.95 22.912 178.154 23.404 178.154 24.052V24.916C178.706 23.956 179.438 23.224 180.35 22.72C181.286 22.216 182.354 21.964 183.554 21.964C186.194 21.964 187.958 23.068 188.846 25.276C189.374 24.268 190.154 23.464 191.186 22.864C192.218 22.264 193.382 21.964 194.678 21.964Z" fill="black"/>
</svg>
