<svg width="208" height="56" viewBox="0 0 208 56" fill="none" xmlns="http://www.w3.org/2000/svg">
<path d="M49.256 39.16C48.7653 39.16 48.3707 39.0107 48.072 38.712C47.7733 38.392 47.624 37.9867 47.624 37.496V18.04C47.624 17.5493 47.7627 17.1653 48.04 16.888C48.3387 16.5893 48.744 16.44 49.256 16.44H60.712C61.736 16.44 62.248 16.888 62.248 17.784C62.248 18.68 61.736 19.128 60.712 19.128H50.888V26.2H60.072C61.096 26.2 61.608 26.648 61.608 27.544C61.608 28.44 61.096 28.888 60.072 28.888H50.888V37.496C50.888 38.008 50.7387 38.4133 50.44 38.712C50.1627 39.0107 49.768 39.16 49.256 39.16ZM71.2688 23C73.3381 23 74.8741 23.5227 75.8768 24.568C76.9008 25.6133 77.4128 27.2027 77.4128 29.336V37.624C77.4128 38.1147 77.2741 38.4987 76.9968 38.776C76.7194 39.032 76.3354 39.16 75.8448 39.16C75.3754 39.16 75.0021 39.0213 74.7248 38.744C74.4474 38.4667 74.3088 38.0933 74.3088 37.624V36.44C73.9034 37.336 73.2954 38.0293 72.4848 38.52C71.6954 38.9893 70.7674 39.224 69.7008 39.224C68.6768 39.224 67.7381 39.0213 66.8848 38.616C66.0528 38.1893 65.3914 37.6133 64.9008 36.888C64.4101 36.1627 64.1648 35.3413 64.1648 34.424C64.1434 33.272 64.4314 32.376 65.0288 31.736C65.6261 31.0747 66.5968 30.6053 67.9408 30.328C69.2848 30.0293 71.1514 29.88 73.5408 29.88H74.2768V28.952C74.2768 27.7573 74.0314 26.8933 73.5408 26.36C73.0501 25.8267 72.2608 25.56 71.1728 25.56C70.4261 25.56 69.7221 25.656 69.0608 25.848C68.3994 26.04 67.6741 26.3173 66.8848 26.68C66.3088 27 65.9034 27.16 65.6688 27.16C65.3488 27.16 65.0821 27.0427 64.8688 26.808C64.6768 26.5733 64.5807 26.2747 64.5807 25.912C64.5807 25.592 64.6661 25.3147 64.8368 25.08C65.0288 24.824 65.3274 24.5787 65.7328 24.344C66.4794 23.9387 67.3541 23.6187 68.3568 23.384C69.3594 23.128 70.3301 23 71.2688 23ZM70.2768 36.824C71.4501 36.824 72.4101 36.4293 73.1568 35.64C73.9034 34.8293 74.2768 33.7947 74.2768 32.536V31.704H73.7008C72.0368 31.704 70.7568 31.7787 69.8608 31.928C68.9648 32.0773 68.3248 32.3333 67.9408 32.696C67.5568 33.0373 67.3648 33.5387 67.3648 34.2C67.3648 34.968 67.6421 35.5973 68.1968 36.088C68.7514 36.5787 69.4448 36.824 70.2768 36.824ZM87.2738 39.224C85.0978 39.224 83.3164 38.776 81.9298 37.88C81.5458 37.6453 81.2684 37.4 81.0978 37.144C80.9484 36.888 80.8738 36.6 80.8738 36.28C80.8738 35.9387 80.9698 35.6507 81.1618 35.416C81.3538 35.1813 81.5991 35.064 81.8978 35.064C82.1751 35.064 82.6124 35.2347 83.2098 35.576C83.8498 35.9173 84.4684 36.1947 85.0658 36.408C85.6844 36.6213 86.4524 36.728 87.3698 36.728C88.3938 36.728 89.1938 36.5467 89.7698 36.184C90.3458 35.8213 90.6338 35.3093 90.6338 34.648C90.6338 34.2213 90.5164 33.88 90.2818 33.624C90.0684 33.368 89.6844 33.144 89.1298 32.952C88.5751 32.7387 87.7538 32.5147 86.6658 32.28C84.7884 31.8747 83.4338 31.3307 82.6018 30.648C81.7911 29.944 81.3858 28.9947 81.3858 27.8C81.3858 26.8827 81.6524 26.0613 82.1858 25.336C82.7191 24.5893 83.4551 24.0133 84.3938 23.608C85.3324 23.2027 86.3991 23 87.5938 23C88.4471 23 89.2791 23.1173 90.0898 23.352C90.9004 23.5653 91.6151 23.8853 92.2338 24.312C92.9378 24.7813 93.2898 25.3253 93.2898 25.944C93.2898 26.2853 93.1831 26.5733 92.9698 26.808C92.7778 27.0427 92.5431 27.16 92.2658 27.16C92.0738 27.16 91.8818 27.1173 91.6898 27.032C91.4978 26.9467 91.2418 26.808 90.9218 26.616C90.3458 26.2747 89.8018 26.008 89.2898 25.816C88.7991 25.624 88.1804 25.528 87.4338 25.528C86.5378 25.528 85.8124 25.72 85.2578 26.104C84.7244 26.488 84.4578 27.0107 84.4578 27.672C84.4578 28.2693 84.7031 28.7387 85.1938 29.08C85.7058 29.4 86.6551 29.7093 88.0417 30.008C89.4711 30.3067 90.5911 30.648 91.4018 31.032C92.2124 31.416 92.7884 31.896 93.1298 32.472C93.4924 33.0267 93.6738 33.7413 93.6738 34.616C93.6738 36.0027 93.0871 37.1227 91.9138 37.976C90.7618 38.808 89.2151 39.224 87.2738 39.224ZM105.719 23C109.431 23 111.287 25.1013 111.287 29.304V37.624C111.287 38.0933 111.138 38.4667 110.839 38.744C110.541 39.0213 110.146 39.16 109.655 39.16C109.165 39.16 108.77 39.0213 108.471 38.744C108.194 38.4667 108.055 38.0933 108.055 37.624V29.336C108.055 28.056 107.789 27.1173 107.255 26.52C106.743 25.9227 105.933 25.624 104.823 25.624C103.522 25.624 102.477 26.0293 101.687 26.84C100.898 27.6507 100.503 28.7387 100.503 30.104V37.624C100.503 38.0933 100.354 38.4667 100.055 38.744C99.7779 39.0213 99.3939 39.16 98.9033 39.16C98.4126 39.16 98.0179 39.0213 97.7193 38.744C97.4206 38.4667 97.2713 38.0933 97.2713 37.624V17.816C97.2713 17.3467 97.4206 16.9733 97.7193 16.696C98.0393 16.4187 98.4446 16.28 98.9353 16.28C99.4046 16.28 99.7779 16.4187 100.055 16.696C100.354 16.952 100.503 17.304 100.503 17.752V25.752C101.037 24.856 101.751 24.1733 102.647 23.704C103.543 23.2347 104.567 23 105.719 23ZM117.341 39.16C116.871 39.16 116.477 39.032 116.157 38.776C115.858 38.52 115.709 38.136 115.709 37.624V24.632C115.709 24.12 115.858 23.736 116.157 23.48C116.477 23.2027 116.871 23.064 117.341 23.064C117.81 23.064 118.194 23.2027 118.493 23.48C118.791 23.736 118.941 24.12 118.941 24.632V37.624C118.941 38.136 118.791 38.52 118.493 38.776C118.194 39.032 117.81 39.16 117.341 39.16ZM117.341 19.928C116.722 19.928 116.231 19.7573 115.869 19.416C115.506 19.0747 115.325 18.6267 115.325 18.072C115.325 17.5173 115.506 17.08 115.869 16.76C116.231 16.4187 116.722 16.248 117.341 16.248C117.938 16.248 118.418 16.4187 118.781 16.76C119.165 17.08 119.357 17.5173 119.357 18.072C119.357 18.6267 119.175 19.0747 118.813 19.416C118.45 19.7573 117.959 19.928 117.341 19.928ZM130.243 39.224C128.707 39.224 127.352 38.8933 126.179 38.232C125.027 37.5707 124.131 36.632 123.491 35.416C122.872 34.1787 122.563 32.7493 122.563 31.128C122.563 29.4853 122.872 28.056 123.491 26.84C124.131 25.6027 125.027 24.6533 126.179 23.992C127.352 23.3307 128.707 23 130.243 23C131.779 23 133.123 23.3307 134.275 23.992C135.448 24.6533 136.344 25.6027 136.963 26.84C137.603 28.056 137.923 29.4853 137.923 31.128C137.923 32.7493 137.603 34.1787 136.963 35.416C136.344 36.632 135.448 37.5707 134.275 38.232C133.123 38.8933 131.779 39.224 130.243 39.224ZM130.243 36.664C131.672 36.664 132.76 36.1947 133.507 35.256C134.275 34.3173 134.659 32.9413 134.659 31.128C134.659 29.336 134.275 27.9707 133.507 27.032C132.739 26.072 131.651 25.592 130.243 25.592C128.835 25.592 127.747 26.072 126.979 27.032C126.211 27.9707 125.827 29.336 125.827 31.128C125.827 32.9413 126.2 34.3173 126.947 35.256C127.715 36.1947 128.813 36.664 130.243 36.664ZM149.937 23C153.671 23 155.537 25.1013 155.537 29.304V37.624C155.537 38.1147 155.388 38.4987 155.089 38.776C154.812 39.032 154.417 39.16 153.905 39.16C153.415 39.16 153.02 39.0213 152.721 38.744C152.444 38.4667 152.305 38.0933 152.305 37.624V29.464C152.305 28.1413 152.039 27.1707 151.505 26.552C150.993 25.9333 150.183 25.624 149.073 25.624C147.772 25.624 146.727 26.0293 145.937 26.84C145.148 27.6507 144.753 28.7387 144.753 30.104V37.624C144.753 38.0933 144.604 38.4667 144.305 38.744C144.028 39.0213 143.644 39.16 143.153 39.16C142.663 39.16 142.268 39.0213 141.969 38.744C141.671 38.4667 141.521 38.0933 141.521 37.624V24.6C141.521 24.152 141.671 23.7893 141.969 23.512C142.289 23.2133 142.684 23.064 143.153 23.064C143.623 23.064 143.996 23.2027 144.273 23.48C144.551 23.7573 144.689 24.12 144.689 24.568V25.88C145.201 24.9413 145.916 24.2267 146.833 23.736C147.751 23.2453 148.785 23 149.937 23ZM170.412 39.16C169.922 39.16 169.527 39.0107 169.228 38.712C168.93 38.392 168.78 37.9867 168.78 37.496V18.04C168.78 17.5493 168.919 17.1653 169.196 16.888C169.495 16.5893 169.9 16.44 170.412 16.44H181.868C182.892 16.44 183.404 16.888 183.404 17.784C183.404 18.68 182.892 19.128 181.868 19.128H172.044V26.2H181.228C182.252 26.2 182.764 26.648 182.764 27.544C182.764 28.44 182.252 28.888 181.228 28.888H172.044V37.496C172.044 38.008 171.895 38.4133 171.596 38.712C171.319 39.0107 170.924 39.16 170.412 39.16ZM189.247 39.16C188.778 39.16 188.383 39.032 188.063 38.776C187.764 38.52 187.615 38.136 187.615 37.624V24.632C187.615 24.12 187.764 23.736 188.063 23.48C188.383 23.2027 188.778 23.064 189.247 23.064C189.716 23.064 190.1 23.2027 190.399 23.48C190.698 23.736 190.847 24.12 190.847 24.632V37.624C190.847 38.136 190.698 38.52 190.399 38.776C190.1 39.032 189.716 39.16 189.247 39.16ZM189.247 19.928C188.628 19.928 188.138 19.7573 187.775 19.416C187.412 19.0747 187.231 18.6267 187.231 18.072C187.231 17.5173 187.412 17.08 187.775 16.76C188.138 16.4187 188.628 16.248 189.247 16.248C189.844 16.248 190.324 16.4187 190.687 16.76C191.071 17.08 191.263 17.5173 191.263 18.072C191.263 18.6267 191.082 19.0747 190.719 19.416C190.356 19.7573 189.866 19.928 189.247 19.928ZM203.451 36.696C203.92 36.7387 204.251 36.8667 204.443 37.08C204.656 37.272 204.763 37.5493 204.763 37.912C204.763 38.3387 204.592 38.6693 204.251 38.904C203.931 39.1173 203.451 39.2027 202.811 39.16L201.947 39.096C200.219 38.968 198.928 38.4453 198.075 37.528C197.221 36.5893 196.795 35.2133 196.795 33.4V25.88H194.875C193.936 25.88 193.466 25.464 193.466 24.632C193.466 24.248 193.584 23.9493 193.819 23.736C194.075 23.5013 194.427 23.384 194.875 23.384H196.795V20.088C196.795 19.5973 196.933 19.2133 197.211 18.936C197.509 18.6587 197.904 18.52 198.395 18.52C198.885 18.52 199.28 18.6587 199.579 18.936C199.877 19.2133 200.027 19.5973 200.027 20.088V23.384H203.195C203.643 23.384 203.984 23.5013 204.219 23.736C204.475 23.9493 204.603 24.248 204.603 24.632C204.603 25.0373 204.475 25.3467 204.219 25.56C203.984 25.7733 203.643 25.88 203.195 25.88H200.027V33.624C200.027 34.6267 200.229 35.3627 200.635 35.832C201.061 36.3013 201.701 36.568 202.555 36.632L203.451 36.696Z" fill="black"/>
<path d="M33.4617 38.8938H5.53832C5.24069 38.8938 5 39.1414 5 39.447C5 39.7525 5.24069 40.0001 5.53832 40.0001H33.462C33.7593 40.0001 34.0003 39.7525 34.0003 39.447C34 39.1414 33.7593 38.8938 33.4617 38.8938Z" fill="black"/>
<path fill-rule="evenodd" clip-rule="evenodd" d="M14.6332 21.3676C14.84 21.1129 15.2139 21.0743 15.4685 21.2815C15.7228 21.4888 15.7613 21.8633 15.5545 22.1185C15.5505 22.1239 14.0725 23.8995 16.3353 25.1617C19.534 26.9458 19.5008 29.1364 19.5008 29.1426C19.5008 29.4724 19.2342 29.7396 18.9051 29.7396C18.576 29.7396 18.3094 29.4724 18.3094 29.1426C18.3094 29.1382 18.3359 27.6395 15.7578 26.2015C12.2446 24.2413 14.6266 21.3761 14.6332 21.3676ZM31.5329 28.5147L26.3039 28.1405L22.8479 22.372L21.1201 19.4837V18.6835C21.1205 17.8154 20.4185 17.1111 19.5522 17.1106C19.3582 17.1102 19.1655 17.1466 18.9848 17.2167L15.8623 18.4239C14.8254 18.8162 14.1287 18.8535 14.3914 17.8749C14.6877 16.8133 14.2067 15.6882 13.2358 15.1708L9.33688 13.072C9.05342 12.9193 8.69998 13.017 8.53433 13.2935L2.81547 22.4691L2.69455 22.399C2.40577 22.2326 2.03683 22.3325 1.87118 22.6223C1.86764 22.6285 1.86409 22.6347 1.86055 22.6409L0.0703063 26.0183C-0.0838266 26.3098 0.0238007 26.6715 0.311693 26.8313L22.0865 38.9246C22.176 38.9738 22.2765 39 22.3788 39H31.3792C33.3781 38.9982 34.9978 37.3752 35 35.3719V32.2444C34.9929 30.285 33.483 28.6602 31.5329 28.5147ZM10.5704 15.1073L12.6649 16.2337C13.1353 16.4827 13.37 17.025 13.2309 17.5394C13.1291 18.5836 12.3761 19.0177 11.6546 18.5677L9.28107 17.1417C8.14899 16.4503 8.55603 14.024 10.5704 15.1073ZM6.91239 20.3699L7.99442 21.1763C9.0047 21.9366 9.52069 23.1885 9.33998 24.4419C9.09018 25.4457 8.62424 25.7844 7.92975 25.4182L4.89537 23.6656C4.20842 23.1881 4.19646 22.5113 4.60748 21.9095L5.3932 20.6664C5.58277 20.389 6.0806 19.7615 6.91239 20.3699ZM31.3788 37.7906H22.5338L3.05419 26.9715C0.50303 25.5545 2.79155 23.8139 4.08883 24.6021L22.6291 35.2916C22.7207 35.3444 22.8248 35.3723 22.9307 35.3723H31.6622C34.0358 35.2951 33.1309 37.7906 31.3788 37.7906ZM31.4572 34.1625H23.0919C19.3134 31.9826 15.5961 29.8376 11.8619 27.6839C10.2355 26.6422 10.4951 25.7591 10.5407 24.5444C10.7644 22.8721 10.065 21.2101 8.71415 20.2026L7.94747 19.6505C6.89511 18.8144 6.71884 17.0183 8.81159 18.2765L12.7765 20.6602C12.8483 20.7015 12.928 20.7272 13.0104 20.7361C13.025 20.7361 13.0374 20.741 13.052 20.7419C13.0662 20.7432 13.0755 20.7463 13.087 20.7463C13.1614 20.7467 13.2358 20.733 13.3054 20.7059L19.418 18.3435C19.53 18.3009 19.6549 18.3156 19.7541 18.383C19.8533 18.4514 19.9123 18.5645 19.9118 18.6853C19.9118 19.777 19.2758 19.7562 18.4648 20.5674C15.9314 23.1016 19.1327 23.8006 23.6579 29.6956C23.8139 29.9002 24.0827 29.9828 24.3267 29.9007L26.0226 29.3339L31.4456 29.7223C32.7655 29.8203 33.7878 30.9188 33.7926 32.2448C33.8391 33.4866 33.0769 34.1625 31.4572 34.1625Z" fill="black"/>
</svg>
