<svg width="203" height="75" viewBox="0 0 203 75" fill="none" xmlns="http://www.w3.org/2000/svg">
<path d="M22.152 59.289C20.4 59.289 18.852 58.917 17.508 58.173C16.188 57.429 15.168 56.373 14.448 55.005C13.728 53.637 13.368 52.041 13.368 50.217C13.368 48.393 13.74 46.785 14.484 45.393C15.252 43.977 16.32 42.885 17.688 42.117C19.056 41.349 20.628 40.965 22.404 40.965C23.34 40.965 24.276 41.097 25.212 41.361C26.172 41.625 27.012 41.985 27.732 42.441C28.5 42.945 28.884 43.581 28.884 44.349C28.884 44.877 28.752 45.309 28.488 45.645C28.248 45.957 27.924 46.113 27.516 46.113C27.252 46.113 26.976 46.053 26.688 45.933C26.4 45.813 26.112 45.669 25.824 45.501C25.296 45.189 24.792 44.949 24.312 44.781C23.832 44.589 23.28 44.493 22.656 44.493C21.168 44.493 20.016 44.985 19.2 45.969C18.408 46.929 18.012 48.321 18.012 50.145C18.012 51.945 18.408 53.337 19.2 54.321C20.016 55.281 21.168 55.761 22.656 55.761C23.256 55.761 23.784 55.677 24.24 55.509C24.72 55.317 25.248 55.065 25.824 54.753C26.184 54.537 26.496 54.381 26.76 54.285C27.024 54.165 27.288 54.105 27.552 54.105C27.936 54.105 28.26 54.273 28.524 54.609C28.788 54.945 28.92 55.365 28.92 55.869C28.92 56.277 28.824 56.637 28.632 56.949C28.464 57.237 28.176 57.501 27.768 57.741C27.024 58.221 26.16 58.605 25.176 58.893C24.192 59.157 23.184 59.289 22.152 59.289ZM61.1875 41.037C61.8115 40.989 62.3035 41.121 62.6635 41.433C63.0235 41.745 63.2035 42.213 63.2035 42.837C63.2035 43.485 63.0475 43.965 62.7355 44.277C62.4235 44.589 61.8595 44.793 61.0435 44.889L59.9635 44.997C58.5475 45.141 57.5035 45.621 56.8315 46.437C56.1835 47.253 55.8595 48.273 55.8595 49.497V57.057C55.8595 57.753 55.6435 58.293 55.2115 58.677C54.7795 59.037 54.2395 59.217 53.5915 59.217C52.9435 59.217 52.4035 59.037 51.9715 58.677C51.5635 58.293 51.3595 57.753 51.3595 57.057V43.125C51.3595 42.453 51.5635 41.937 51.9715 41.577C52.4035 41.217 52.9315 41.037 53.5555 41.037C54.1795 41.037 54.6835 41.217 55.0675 41.577C55.4515 41.913 55.6435 42.405 55.6435 43.053V44.493C56.0995 43.437 56.7715 42.621 57.6595 42.045C58.5715 41.469 59.5795 41.145 60.6835 41.073L61.1875 41.037ZM71.337 59.289C68.721 59.289 66.609 58.773 65.001 57.741C64.233 57.285 63.849 56.637 63.849 55.797C63.849 55.317 63.981 54.933 64.245 54.645C64.509 54.333 64.833 54.177 65.217 54.177C65.625 54.177 66.189 54.369 66.909 54.753C67.677 55.113 68.373 55.389 68.997 55.581C69.645 55.773 70.461 55.869 71.445 55.869C72.453 55.869 73.233 55.701 73.785 55.365C74.361 55.029 74.649 54.561 74.649 53.961C74.649 53.553 74.529 53.229 74.289 52.989C74.073 52.749 73.665 52.533 73.065 52.341C72.489 52.125 71.601 51.885 70.401 51.621C68.265 51.189 66.729 50.577 65.793 49.785C64.881 48.993 64.425 47.901 64.425 46.509C64.425 45.453 64.737 44.505 65.361 43.665C65.985 42.801 66.837 42.141 67.917 41.685C69.021 41.205 70.269 40.965 71.661 40.965C72.669 40.965 73.641 41.097 74.577 41.361C75.513 41.601 76.353 41.961 77.097 42.441C77.865 42.921 78.249 43.557 78.249 44.349C78.249 44.829 78.117 45.237 77.853 45.573C77.589 45.885 77.265 46.041 76.881 46.041C76.617 46.041 76.353 45.993 76.089 45.897C75.849 45.777 75.537 45.609 75.153 45.393C74.457 45.033 73.857 44.769 73.353 44.601C72.849 44.409 72.225 44.313 71.481 44.313C70.593 44.313 69.885 44.493 69.357 44.853C68.853 45.213 68.601 45.705 68.601 46.329C68.601 46.929 68.865 47.385 69.393 47.697C69.921 48.009 70.941 48.321 72.453 48.633C74.061 48.969 75.321 49.353 76.233 49.785C77.145 50.217 77.793 50.757 78.177 51.405C78.585 52.053 78.789 52.881 78.789 53.889C78.789 55.521 78.105 56.829 76.737 57.813C75.393 58.797 73.593 59.289 71.337 59.289ZM84.2017 51.153C83.5057 51.153 82.9777 50.997 82.6177 50.685C82.2817 50.373 82.1137 49.941 82.1137 49.389C82.1137 48.837 82.2817 48.405 82.6177 48.093C82.9777 47.757 83.5057 47.589 84.2017 47.589H91.6177C92.3137 47.589 92.8297 47.757 93.1657 48.093C93.5257 48.405 93.7057 48.837 93.7057 49.389C93.7057 49.941 93.5257 50.373 93.1657 50.685C92.8297 50.997 92.3137 51.153 91.6177 51.153H84.2017ZM141.614 59.289C138.998 59.289 136.886 58.773 135.278 57.741C134.51 57.285 134.126 56.637 134.126 55.797C134.126 55.317 134.258 54.933 134.522 54.645C134.786 54.333 135.11 54.177 135.494 54.177C135.902 54.177 136.466 54.369 137.186 54.753C137.954 55.113 138.65 55.389 139.274 55.581C139.922 55.773 140.738 55.869 141.722 55.869C142.73 55.869 143.51 55.701 144.062 55.365C144.638 55.029 144.926 54.561 144.926 53.961C144.926 53.553 144.806 53.229 144.566 52.989C144.35 52.749 143.942 52.533 143.342 52.341C142.766 52.125 141.878 51.885 140.678 51.621C138.542 51.189 137.006 50.577 136.07 49.785C135.158 48.993 134.702 47.901 134.702 46.509C134.702 45.453 135.014 44.505 135.638 43.665C136.262 42.801 137.114 42.141 138.194 41.685C139.298 41.205 140.546 40.965 141.938 40.965C142.946 40.965 143.918 41.097 144.854 41.361C145.79 41.601 146.63 41.961 147.374 42.441C148.142 42.921 148.526 43.557 148.526 44.349C148.526 44.829 148.394 45.237 148.13 45.573C147.866 45.885 147.542 46.041 147.158 46.041C146.894 46.041 146.63 45.993 146.366 45.897C146.126 45.777 145.814 45.609 145.43 45.393C144.734 45.033 144.134 44.769 143.63 44.601C143.126 44.409 142.502 44.313 141.758 44.313C140.87 44.313 140.162 44.493 139.634 44.853C139.13 45.213 138.878 45.705 138.878 46.329C138.878 46.929 139.142 47.385 139.67 47.697C140.198 48.009 141.218 48.321 142.73 48.633C144.338 48.969 145.598 49.353 146.51 49.785C147.422 50.217 148.07 50.757 148.454 51.405C148.862 52.053 149.066 52.881 149.066 53.889C149.066 55.521 148.382 56.829 147.014 57.813C145.67 58.797 143.87 59.289 141.614 59.289ZM174.388 59.217C173.74 59.217 173.2 59.037 172.768 58.677C172.36 58.293 172.156 57.753 172.156 57.057V35.565C172.156 34.869 172.36 34.341 172.768 33.981C173.2 33.621 173.74 33.441 174.388 33.441C175.036 33.441 175.576 33.621 176.008 33.981C176.44 34.341 176.656 34.869 176.656 35.565V57.057C176.656 57.753 176.44 58.293 176.008 58.677C175.576 59.037 175.036 59.217 174.388 59.217ZM195.229 54.177C195.637 54.177 195.961 54.333 196.201 54.645C196.465 54.957 196.597 55.377 196.597 55.905C196.597 56.649 196.153 57.273 195.265 57.777C194.449 58.233 193.525 58.605 192.493 58.893C191.461 59.157 190.477 59.289 189.541 59.289C186.709 59.289 184.465 58.473 182.809 56.841C181.153 55.209 180.325 52.977 180.325 50.145C180.325 48.345 180.685 46.749 181.405 45.357C182.125 43.965 183.133 42.885 184.429 42.117C185.749 41.349 187.237 40.965 188.893 40.965C190.477 40.965 191.857 41.313 193.033 42.009C194.209 42.705 195.121 43.689 195.769 44.961C196.417 46.233 196.741 47.733 196.741 49.461C196.741 50.493 196.285 51.009 195.373 51.009H184.753C184.897 52.665 185.365 53.889 186.157 54.681C186.949 55.449 188.101 55.833 189.613 55.833C190.381 55.833 191.053 55.737 191.629 55.545C192.229 55.353 192.901 55.089 193.645 54.753C194.365 54.369 194.893 54.177 195.229 54.177ZM189.001 44.133C187.777 44.133 186.793 44.517 186.049 45.285C185.329 46.053 184.897 47.157 184.753 48.597H192.889C192.841 47.133 192.481 46.029 191.809 45.285C191.137 44.517 190.201 44.133 189.001 44.133Z" fill="black"/>
<path d="M39.5501 40.965C41.9981 40.965 43.8101 41.577 44.9861 42.801C46.1861 44.001 46.7861 45.837 46.7861 48.309V57.093C46.7861 57.741 46.5941 58.257 46.2101 58.641C45.8261 59.001 45.2981 59.181 44.6261 59.181C44.0021 59.181 43.4861 58.989 43.0781 58.605C42.6941 58.221 42.5021 57.717 42.5021 57.093V56.301C42.0941 57.237 41.4461 57.969 40.5581 58.497C39.6941 59.025 38.6861 59.289 37.5341 59.289C36.3581 59.289 35.2901 59.049 34.3301 58.569C33.3701 58.089 32.6141 57.429 32.0621 56.589C31.5101 55.749 31.2341 54.813 31.2341 53.781C31.2341 52.485 31.5581 51.465 32.2061 50.721C32.8781 49.977 33.9581 49.437 35.4461 49.101C36.9341 48.765 38.9861 48.597 41.6021 48.597H42.5021V47.769C42.5021 46.593 42.2501 45.741 41.7461 45.213C41.2421 44.661 40.4261 44.385 39.2981 44.385C38.6021 44.385 37.8941 44.493 37.1741 44.709C36.4541 44.901 35.6021 45.189 34.6181 45.573C33.9941 45.885 33.5381 46.041 33.2501 46.041C32.8181 46.041 32.4581 45.885 32.1701 45.573C31.9061 45.261 31.7741 44.853 31.7741 44.349C31.7741 43.941 31.8701 43.593 32.0621 43.305C32.2781 42.993 32.6261 42.705 33.1061 42.441C33.9461 41.985 34.9421 41.625 36.0941 41.361C37.2701 41.097 38.4221 40.965 39.5501 40.965ZM38.4341 56.049C39.6341 56.049 40.6061 55.653 41.3501 54.861C42.1181 54.045 42.5021 53.001 42.5021 51.729V50.973H41.8541C40.2461 50.973 38.9981 51.045 38.1101 51.189C37.2221 51.333 36.5861 51.585 36.2021 51.945C35.8181 52.305 35.6261 52.797 35.6261 53.421C35.6261 54.189 35.8901 54.825 36.4181 55.329C36.9701 55.809 37.6421 56.049 38.4341 56.049ZM114.607 50.433C115.327 50.433 115.867 50.589 116.227 50.901C116.587 51.213 116.767 51.657 116.767 52.233C116.767 53.433 116.047 54.033 114.607 54.033H112.771V56.877C112.771 57.621 112.555 58.197 112.123 58.605C111.715 59.013 111.175 59.217 110.503 59.217C109.831 59.217 109.279 59.013 108.847 58.605C108.439 58.197 108.235 57.621 108.235 56.877V54.033H98.803C98.155 54.033 97.651 53.853 97.291 53.493C96.931 53.109 96.751 52.641 96.751 52.089C96.751 51.513 96.943 50.961 97.327 50.433L108.451 34.449C108.691 34.113 108.991 33.861 109.351 33.693C109.711 33.501 110.083 33.405 110.467 33.405C111.091 33.405 111.631 33.609 112.087 34.017C112.543 34.425 112.771 35.001 112.771 35.745V50.433H114.607ZM101.539 50.433H108.235V40.749L101.539 50.433ZM121.397 51.153C120.701 51.153 120.173 50.997 119.813 50.685C119.477 50.373 119.309 49.941 119.309 49.389C119.309 48.837 119.477 48.405 119.813 48.093C120.173 47.757 120.701 47.589 121.397 47.589H128.813C129.509 47.589 130.025 47.757 130.361 48.093C130.721 48.405 130.901 48.837 130.901 49.389C130.901 49.941 130.721 50.373 130.361 50.685C130.025 50.997 129.509 51.153 128.813 51.153H121.397ZM160.347 40.965C162.795 40.965 164.607 41.577 165.783 42.801C166.983 44.001 167.583 45.837 167.583 48.309V57.093C167.583 57.741 167.391 58.257 167.007 58.641C166.623 59.001 166.095 59.181 165.423 59.181C164.799 59.181 164.283 58.989 163.875 58.605C163.491 58.221 163.299 57.717 163.299 57.093V56.301C162.891 57.237 162.243 57.969 161.355 58.497C160.491 59.025 159.483 59.289 158.331 59.289C157.155 59.289 156.087 59.049 155.127 58.569C154.167 58.089 153.411 57.429 152.859 56.589C152.307 55.749 152.031 54.813 152.031 53.781C152.031 52.485 152.355 51.465 153.003 50.721C153.675 49.977 154.755 49.437 156.243 49.101C157.731 48.765 159.783 48.597 162.399 48.597H163.299V47.769C163.299 46.593 163.047 45.741 162.543 45.213C162.039 44.661 161.223 44.385 160.095 44.385C159.399 44.385 158.691 44.493 157.971 44.709C157.251 44.901 156.399 45.189 155.415 45.573C154.791 45.885 154.335 46.041 154.047 46.041C153.615 46.041 153.255 45.885 152.967 45.573C152.703 45.261 152.571 44.853 152.571 44.349C152.571 43.941 152.667 43.593 152.859 43.305C153.075 42.993 153.423 42.705 153.903 42.441C154.743 41.985 155.739 41.625 156.891 41.361C158.067 41.097 159.219 40.965 160.347 40.965ZM159.231 56.049C160.431 56.049 161.403 55.653 162.147 54.861C162.915 54.045 163.299 53.001 163.299 51.729V50.973H162.651C161.043 50.973 159.795 51.045 158.907 51.189C158.019 51.333 157.383 51.585 156.999 51.945C156.615 52.305 156.423 52.797 156.423 53.421C156.423 54.189 156.687 54.825 157.215 55.329C157.767 55.809 158.439 56.049 159.231 56.049Z" fill="#107FC4"/>
<path fill-rule="evenodd" clip-rule="evenodd" d="M203 26.0698C168.076 32.8205 21.7841 14.3149 0 39.0005C22.1277 8.71874 137.972 27.2563 169.757 20.0951C154.364 12.5073 138.737 8.20151 122.883 7.17772C100.87 5.75668 88.9129 8.85204 69.2326 18.6607C114.226 -18.5423 165.765 8.4388 203 26.0698Z" fill="#107FC4"/>
</svg>
