<svg width="144" height="144" viewBox="0 0 144 144" fill="none" xmlns="http://www.w3.org/2000/svg">
<rect width="144" height="144" rx="72" fill="#EC467B"/>
<path d="M72 48C79.72 48 86 54.28 86 62C86 69.72 79.72 76 72 76C64.28 76 58 69.72 58 62C58 54.28 64.28 48 72 48ZM76 83.64C81.0563 82.7051 85.6254 80.0286 88.9137 76.0754C92.2019 72.1222 94.0016 67.142 94 62C94 49.84 84.16 40 72 40C59.84 40 50 49.84 50 62C49.9984 67.142 51.7981 72.1222 55.0863 76.0754C58.3746 80.0286 62.9437 82.7051 68 83.64V92H64C61.8 92 60 93.8 60 96C60 98.2 61.8 100 64 100H68V104C68 106.2 69.8 108 72 108C74.2 108 76 106.2 76 104V100H80C82.2 100 84 98.2 84 96C84 93.8 82.2 92 80 92H76V83.64Z" fill="white"/>
</svg>
