<svg width="144" height="144" viewBox="0 0 144 144" fill="none" xmlns="http://www.w3.org/2000/svg">
<rect width="144" height="144" rx="72" fill="#0695D3"/>
<path d="M100 40H84C81.8 40 80 41.8 80 44C80 46.2 81.8 48 84 48H90.32L74.44 63.88C70.92 61.44 66.64 60 62 60C49.84 60 40 69.84 40 82C40 94.16 49.84 104 62 104C74.16 104 84 94.16 84 82C84 77.36 82.56 73.08 80.12 69.52L96 53.68V60C96 62.2 97.8 64 100 64C102.2 64 104 62.2 104 60V44C104 41.8 102.2 40 100 40ZM62 96C54.28 96 48 89.72 48 82C48 74.28 54.28 68 62 68C69.72 68 76 74.28 76 82C76 89.72 69.72 96 62 96Z" fill="white"/>
</svg>
