<svg width="10" height="13" viewBox="0 0 10 13" fill="none" xmlns="http://www.w3.org/2000/svg">
<path d="M5.16532 13H4.83796L4.7738 12.974C4.58639 12.8916 4.4278 12.7559 4.31812 12.584L3.08725 10.8589C2.3435 9.81896 1.60149 8.77897 0.861223 7.73899C0.387545 7.06481 0.10038 6.27901 0.0284253 5.46013C-0.0837743 4.42793 0.137991 3.38707 0.661587 2.48837C1.18518 1.58968 1.98341 0.879844 2.9406 0.461722C4.81701 -0.345564 6.64629 -0.0907684 8.22939 1.19881C8.71517 1.58943 9.11832 2.0716 9.41564 2.61754C9.71295 3.16348 9.89856 3.76241 9.96176 4.37985C10.1184 5.61779 9.79025 6.86816 9.04516 7.87289C7.93127 9.43286 6.81782 10.9928 5.70481 12.5528C5.59242 12.7405 5.42337 12.8883 5.22163 12.9753L5.16532 13ZM5.00426 12.2928C5.04907 12.2481 5.08901 12.1989 5.12342 12.1459C6.23643 10.5859 7.34989 9.02597 8.46377 7.466C9.10295 6.60314 9.38418 5.52964 9.24943 4.46695C9.19701 3.9396 9.04011 3.42774 8.78776 2.9608C8.53539 2.49386 8.19255 2.08105 7.77894 1.7461C6.39488 0.619019 4.86284 0.405823 3.22474 1.11041C2.40561 1.46919 1.72287 2.07767 1.27553 2.84762C0.828194 3.61756 0.639505 4.50895 0.736827 5.39253C0.797343 6.08716 1.03975 6.754 1.43999 7.3269C2.17676 8.36688 2.91877 9.40686 3.66602 10.4468C4.07806 11.0223 4.48922 11.5986 4.89951 12.1758C4.92955 12.2189 4.96472 12.2581 5.00426 12.2928ZM4.99117 6.86021H4.97283C4.47306 6.84702 3.99812 6.64105 3.64878 6.28598C3.29944 5.93091 3.10318 5.45468 3.10166 4.95834C3.10788 4.45679 3.3141 3.97813 3.67514 3.62724C4.03619 3.27636 4.52261 3.08186 5.02783 3.08638C5.52738 3.09787 6.00273 3.3023 6.35287 3.65623C6.70301 4.01015 6.90034 4.48567 6.90293 4.98174C6.89844 5.48194 6.69496 5.9601 6.33684 6.31197C5.97873 6.66385 5.49502 6.86091 4.99117 6.86021ZM5.00426 3.79226C4.68999 3.79175 4.38826 3.91465 4.16492 4.13416C4.0534 4.24199 3.96451 4.37069 3.90338 4.51282C3.84225 4.65495 3.81008 4.8077 3.80875 4.96224C3.80897 5.27228 3.93099 5.57001 4.14886 5.79213C4.36673 6.01426 4.66328 6.14326 4.97545 6.15172C5.13306 6.15378 5.28953 6.12491 5.43587 6.06678C5.58221 6.00864 5.71554 5.92237 5.8282 5.81294C5.94087 5.7035 6.03065 5.57305 6.09239 5.42907C6.15413 5.28509 6.18662 5.13042 6.18799 4.97394C6.18636 4.66427 6.06316 4.36744 5.84456 4.14653C5.62596 3.92563 5.3292 3.79807 5.01735 3.79096H5.00426V3.79226Z" fill="#143656"/>
</svg>
