<svg xmlns="http://www.w3.org/2000/svg" width="18" height="22" fill="none">
  <defs/>
  <path fill="#143656" fill-rule="evenodd" d="M9 2a3 3 0 00-3 3h6a3 3 0 00-3-3zm5 3A5 5 0 004 5H2.105a2 2 0 00-1.99 2.199L.99 15.95l-.731 3.657a2 2 0 001.96 2.392H15.78a2 2 0 001.961-2.392l-.731-3.657.875-8.751a1.999 1.999 0 00-1.99-2.2H14zM5 7H2.105l.89 8.9.015.15-.03.145L2.22 20h13.56l-.76-3.804-.03-.147.015-.148.89-8.9.995.1-.995-.1H5zm-1 9a1 1 0 011-1h8a1 1 0 110 2H5a1 1 0 01-1-1z" clip-rule="evenodd"/>
</svg>