<svg width="14" height="14" viewBox="0 0 14 14" fill="none" xmlns="http://www.w3.org/2000/svg">
<path d="M1.39999 6.9999L1.04644 6.64635C0.851178 6.84161 0.851178 7.15819 1.04644 7.35346L1.39999 6.9999ZM6.99999 12.5999L6.64644 12.9535C6.8417 13.1487 7.15829 13.1487 7.35355 12.9535L6.99999 12.5999ZM12.6 6.9999L12.9535 7.35346C13.0473 7.25969 13.1 7.13251 13.1 6.9999H12.6ZM6.99999 1.3999V0.899902C6.86739 0.899902 6.74021 0.952581 6.64644 1.04635L6.99999 1.3999ZM1.04644 7.35346L6.64644 12.9535L7.35355 12.2463L1.75355 6.64635L1.04644 7.35346ZM7.35355 12.9535L12.9535 7.35346L12.2464 6.64635L6.64644 12.2463L7.35355 12.9535ZM13.1 6.9999V2.1999H12.1V6.9999H13.1ZM11.8 0.899902H6.99999V1.8999H11.8V0.899902ZM6.64644 1.04635L1.04644 6.64635L1.75355 7.35346L7.35355 1.75346L6.64644 1.04635ZM13.1 2.1999C13.1 1.48193 12.518 0.899902 11.8 0.899902V1.8999C11.9657 1.8999 12.1 2.03422 12.1 2.1999H13.1ZM9.39999 4.8999C9.23431 4.8999 9.09999 4.76559 9.09999 4.5999H8.09999C8.09999 5.31787 8.68202 5.8999 9.39999 5.8999V4.8999ZM9.69999 4.5999C9.69999 4.76559 9.56568 4.8999 9.39999 4.8999V5.8999C10.118 5.8999 10.7 5.31787 10.7 4.5999H9.69999ZM9.39999 4.2999C9.56568 4.2999 9.69999 4.43422 9.69999 4.5999H10.7C10.7 3.88193 10.118 3.2999 9.39999 3.2999V4.2999ZM9.39999 3.2999C8.68202 3.2999 8.09999 3.88193 8.09999 4.5999H9.09999C9.09999 4.43422 9.23431 4.2999 9.39999 4.2999V3.2999Z" fill="#143656"/>
</svg>
